<?xml version="1.0" encoding="utf-8"?>
<!-- Generator: Adobe Illustrator 16.0.0, SVG Export Plug-In . SVG Version: 6.00 Build 0)  -->
<!DOCTYPE svg PUBLIC "-//W3C//DTD SVG 1.1//EN" "http://www.w3.org/Graphics/SVG/1.1/DTD/svg11.dtd">
<svg version="1.1" id="Layer_1" xmlns="http://www.w3.org/2000/svg" xmlns:xlink="http://www.w3.org/1999/xlink" x="0px" y="0px"
	 width="225px" height="225px" viewBox="0 0 225 225" enable-background="new 0 0 225 225" xml:space="preserve">
<g>
	<g>
		<path display="none" fill-rule="evenodd" clip-rule="evenodd" fill="#F0F0F0" d="M38,226c-12.333,0-24.667,0-37,0C1,151,1,76,1,1
			c75,0,150,0,225,0c0,75,0,150,0,225c-12,0-24,0-36,0c-0.001-15.829,0.457-31.675-0.123-47.483
			c-0.668-18.251-8.654-32.421-25.736-40.436c-6.849-3.214-13.402-4.631-20.609,0.434c-8.447,5.937-18.645,8.063-28.809,8.327
			c-11.791,0.306-22.786-3.016-32.982-9.385c-3.012-1.882-7.818-2.755-11.211-1.857c-20.046,5.303-32.948,22.711-32.591,42.914
			C38.217,194.338,37.998,210.171,38,226z M158.021,85.967c1.726-26.104-21.767-44.734-43.053-45.27
			C88.86,40.042,69.013,63.276,68.554,85.406c-0.454,21.925,20.798,46.389,45.135,45.742
			C137.146,130.524,159.232,112.057,158.021,85.967z"/>
		<path fill-rule="evenodd" clip-rule="evenodd" fill="#B8B8B8" d="M38,226c-0.002-15.829,0.217-31.662-0.062-47.486
			c-0.356-20.203,12.545-37.611,32.591-42.914c3.393-0.897,8.199-0.024,11.211,1.857c10.196,6.369,21.191,9.69,32.982,9.385
			c10.164-0.264,20.361-2.391,28.809-8.327c7.207-5.064,13.761-3.647,20.609-0.434c17.082,8.015,25.068,22.185,25.736,40.436
			c0.58,15.809,0.122,31.654,0.123,47.483C139.334,226,88.667,226,38,226z"/>
		<path fill-rule="evenodd" clip-rule="evenodd" fill="#B8B8B8" d="M158.021,85.967c1.211,26.09-20.875,44.558-44.332,45.182
			c-24.337,0.646-45.589-23.817-45.135-45.742c0.458-22.13,20.306-45.364,46.415-44.709
			C136.255,41.232,159.747,59.863,158.021,85.967z"/>
	</g>
</g>
</svg>
