<svg width="25" height="25" viewBox="0 0 25 25" fill="none" xmlns="http://www.w3.org/2000/svg">
<mask id="mask0_741_4795" style="mask-type:alpha" maskUnits="userSpaceOnUse" x="0" y="0" width="25" height="25">
<circle cx="12.5" cy="12.5" r="12.5" fill="white"/>
</mask>
<g mask="url(#mask0_741_4795)">
<path d="M12.5 25C19.4036 25 25 19.4036 25 12.5C25 5.59644 19.4036 0 12.5 0C5.59644 0 0 5.59644 0 12.5C0 19.4036 5.59644 25 12.5 25Z" fill="#4B5283"/>
<path d="M12.5001 15.5091C15.3355 15.5091 17.6341 13.2105 17.6341 10.3751C17.6341 7.53975 15.3355 5.24121 12.5001 5.24121C9.66475 5.24121 7.36621 7.53975 7.36621 10.3751C7.36621 13.2105 9.66475 15.5091 12.5001 15.5091Z" fill="white"/>
<path d="M12.5002 33.8124C17.5546 33.8124 21.652 29.715 21.652 24.6606C21.652 19.6062 17.5546 15.5088 12.5002 15.5088C7.44578 15.5088 3.34839 19.6062 3.34839 24.6606C3.34839 29.715 7.44578 33.8124 12.5002 33.8124Z" fill="white"/>
</g>
</svg>
